/* XPM */
static char * coin_xpm[] = {
"64 64 112 2",
"  	c #211E27",
". 	c #070608",
"+ 	c #201D26",
"@ 	c #D1B33C",
"# 	c #D3A337",
"$ 	c #D39D25",
"% 	c #D38D20",
"& 	c #D38F31",
"* 	c #D38F30",
"= 	c #D39F34",
"- 	c #D39E26",
"; 	c #D0D2D4",
"> 	c #D3D2D4",
", 	c #D3C348",
"' 	c #D3C557",
") 	c #D3CD5F",
"! 	c #C66108",
"~ 	c #C86A08",
"{ 	c #CC7408",
"] 	c #D39E25",
"^ 	c #D38D22",
"/ 	c #D38614",
"( 	c #D2D2D4",
"_ 	c #D3C94D",
": 	c #D3CB5B",
"< 	c #D3CB5C",
"[ 	c #D3BF52",
"} 	c #B04C08",
"| 	c #B35708",
"1 	c #C66008",
"2 	c #070609",
"3 	c #D3D2D3",
"4 	c #D3BB34",
"5 	c #AF4C08",
"6 	c #D3CF64",
"7 	c #D2D1CE",
"8 	c #D3C94C",
"9 	c #D3CF65",
"0 	c #B04F08",
"a 	c #B35C08",
"b 	c #B05008",
"c 	c #D3CA5B",
"d 	c #B45708",
"e 	c #B04708",
"f 	c #B35408",
"g 	c #D3A13D",
"h 	c #D39A37",
"i 	c #D3A03E",
"j 	c #B45508",
"k 	c #B76208",
"l 	c #B35B08",
"m 	c #B05608",
"n 	c #D39433",
"o 	c #D39533",
"p 	c #D39534",
"q 	c #B05108",
"r 	c #B35608",
"s 	c #B76209",
"t 	c #D3C84C",
"u 	c #D39F3C",
"v 	c #D39B38",
"w 	c #D29332",
"x 	c #D38F2F",
"y 	c #D3CA5A",
"z 	c #D3C456",
"A 	c #D3BE52",
"B 	c #AF4F08",
"C 	c #D38B2C",
"D 	c #D3C053",
"E 	c #D3CE5F",
"F 	c #D3C556",
"G 	c #D3C95B",
"H 	c #B45608",
"I 	c #C86B08",
"J 	c #D39030",
"K 	c #D3C247",
"L 	c #D3A03D",
"M 	c #D39A38",
"N 	c #D3CA5C",
"O 	c #D2892B",
"P 	c #D38A2B",
"Q 	c #D3C457",
"R 	c #D39937",
"S 	c #D3C054",
"T 	c #D3BE44",
"U 	c #D38D21",
"V 	c #D3BE45",
"W 	c #D39635",
"X 	c #D3BF44",
"Y 	c #D3BC35",
"Z 	c #D3881D",
"` 	c #AF5108",
" .	c #D3871D",
"..	c #D1B23C",
"+.	c #D3A035",
"@.	c #D0C959",
"#.	c #D3BC36",
"$.	c #D38C20",
"%.	c #D3902F",
"&.	c #D2BF52",
"*.	c #C76008",
"=.	c #CD7508",
"-.	c #D3A034",
";.	c #D38A2C",
">.	c #D38714",
",.	c #D39535",
"'.	c #B04B08",
").	c #D3C347",
"!.	c #D3C657",
"~.	c #D3C052",
"{.	c #C76108",
"].	c #D2CD5F",
"                                                                                                                                ",
"                                                                                                                                ",
"                                                                                                                                ",
"                                                                                                                                ",
"                                                                                                                                ",
"                                                                                                                                ",
"                                                                                                                                ",
"                                                                                                                                ",
"                                                                                                                                ",
"                                                                                                                                ",
"                                                                                                                                ",
"                                                                                                                                ",
"                                                                                                                                ",
"                                                                                                                                ",
"                                                                                                                                ",
"                                                                                                                                ",
"                                                    . . . . . . . . . . . .                                                     ",
"                                          +         . . . . . . . . . . . .                                                     ",
"                                            . . . . @ # # # # # # # # # # @ . . . .                                             ",
"                                      +     . . . . $ % & * * * * * * * * = . . . .                                             ",
"                                        . . @ # # - ; > , ' ' ' ' ' ' ' ' ) ! ~ ~ { . .                                         ",
"                                  +     . . ] ^ ^ / > ( _ : : : : : : < [ < } | | 1 2 .                                         ",
"                                    . . @ - ; 3 3 > 4 _ } | | | | | | 5 : [ < : : 6 ! { . .                                     ",
"                                    . . # ^ 3 7 3 > 8 9 0 a a a a a a b 6 c c : [ c d ~ . .                                     ",
"                                    . . # ^ 3 3 e f | b g h h h h h h i b | | } : c d ~ . .                                     ",
"                                    . . ] / > > j k l m h n n n n o * p q r s | : < } ! 2 .                                     ",
"                                . . @ ] ; > 4 t d l u v w n n n n x y z < 6 r | : A < 6 1 { . .                                 ",
"                                . . # % > ( _ 9 B m h n n o * * * C ' D D < 5 } E F D G H I . .                                 ",
"                                . . # J K _ } b L M w n n x y ' ' ' [ D D A N ) O P ' G H I . .                                 ",
"                                . . # x Q c H a R n n o * C ' D D D D D D S T K & x Q G H I . .                                 ",
"                                . . # x Q c H a R n n x y ' [ D D D D D D T > > U x Q G H I . .                                 ",
"                                . . # x Q c H a R n n x Q D D D D D D D D V 3 3 ^ x Q G H I . .                                 ",
"                                . . # x Q c H a R n n x Q D D D D D D D D V 3 3 ^ x Q G H I . .                                 ",
"                                . . # x Q c H a R o * C ' D D D D D D D D V 3 3 ^ x Q G H I . .                                 ",
"                                . . # x Q c H a R x y ' [ D D D D D D D D V 3 3 ^ x Q G H I . .                                 ",
"                                . . # x Q < } b g W z D D D D D D D D S X Y > > Z C ' G H I . .                                 ",
"                                . . # x Q [ < 6 b ` : D D D D D D D D T > > /  .N ' [ G H I . .                                 ",
"                                . . ..+.@.F D c d r 6 < [ S T V V V V #.> > $.%.' &.< 6 *.=.. .                                 ",
"                                    . . -.;.' c d k r } : T > 3 3 3 3 > >.U ,.%.' < '.! 2 .                                     ",
"                                    . . # %.' < } | | '.E ).> 3 3 3 3 >  .J J C ' c d ~ . .                                     ",
"                                    . . # %.' [ < : : ) O & % ^ ^ ^ ^  .N ' ' ' [ c d ~ . .                                     ",
"                                    . . ..+.@.F F F D !.;.* * * * * * P ' &.< c c 6 *.{ . .                                     ",
"                                        . . -.%.%.;.' ~.!.' ' ' ' ' ' ' [ < '.| | {.2 .     +                                   ",
"                                        . . ..# # +.@.z z z z z z z z z z ].{.I I =.. .                                         ",
"                                            . . . . -.x x x x x x x x x x = . . . .     +                                       ",
"                                            . . . . ..# # # # # # # # # # ... . . .                                             ",
"                                                    . . . . . . . . . . . .         +                                           ",
"                                                    . . . . . . . . . . . .                                                     ",
"                                                                                                                                ",
"                                                                                                                                ",
"                                                                                                                                ",
"                                                                                                                                ",
"                                                                                                                                ",
"                                                                                                                                ",
"                                                                                                                                ",
"                                                                                                                                ",
"                                                                                                                                ",
"                                                                                                                                ",
"                                                                                                                                ",
"                                                                                                                                ",
"                                                                                                                                ",
"                                                                                                                                ",
"                                                                                                                                ",
"                                                                                                                                "};
