/* XPM */
static char * exit_xpm[] = {
"64 64 5 1",
" 	c #211E27",
".	c #3E414E",
"+	c #4E5964",
"@	c #312E3D",
"#	c #28252F",
"            ....++++....@@@@@@@@@@@@@@@@............++++        ",
"            ....++++....@@@@@@@@@@@@@@@@............++++        ",
"            ....++++....@@@@@@@@@@@@@@@@............++++        ",
"            ....++++....@@@@@@@@@@@@@@@@............++++        ",
"            ....@@@@########################@@@@....++++        ",
"            ....@@@@########################@@@@....++++        ",
"            ....@@@@########################@@@@....++++        ",
"            ....@@@@########################@@@@....++++@@@@    ",
"    ++++........################################........@@@@    ",
"    ++++........################################........@@@@    ",
"    ++++........################################........@@@@    ",
"    ++++........################################........@@@@    ",
"    ........@@@@################################@@@@....@@@@    ",
"    ........@@@@################################@@@@....@@@@    ",
"    ........@@@@################################@@@@....@@@@    ",
"    ........@@@@################################@@@@....@@@@    ",
"    ........@@@@################################@@@@....@@@@    ",
"    ........@@@@################################@@@@....@@@@    ",
"............@@@@################################@@@@....@@@@    ",
"............@@@@################################@@@@....@@@@    ",
"............########################################........    ",
"............########################################........    ",
"............########################################........    ",
"............########################################........    ",
"............########################################........    ",
"............########################################........    ",
"............########################################........    ",
"............########################################........    ",
"@@@@........########################################........    ",
"@@@@........########################################........    ",
"@@@@........########################################........    ",
"@@@@........########################################........    ",
"####@@@@....########################################........@@@@",
"####@@@@....########################################........@@@@",
"####@@@@....########################################........@@@@",
"####@@@@....########################################........@@@@",
"####@@@@....########################################........@@@@",
"####@@@@....########################################........@@@@",
"####@@@@....########################################........@@@@",
"####@@@@....########################################........@@@@",
"########@@@@########################################++++++++....",
"########@@@@########################################++++++++....",
"########@@@@########################################++++++++....",
"########@@@@########################################++++++++....",
"####@@@@....########################################........@@@@",
"####@@@@....########################################........@@@@",
"####@@@@....########################################........@@@@",
"####@@@@....########################################........@@@@",
"########....########@@@@@@@@@@@@@@@@@@@@@@@@########....@@@@@@@@",
"########....########@@@@@@@@@@@@@@@@@@@@@@@@########....@@@@@@@@",
"########....########@@@@@@@@@@@@@@@@@@@@@@@@########....@@@@@@@@",
"########....########@@@@@@@@@@@@@@@@@@@@@@@@########....@@@@@@@@",
"        ....####@@@@@@@@@@@@@@@@@@@@@@@@@@@@@@@@####@@@@        ",
"        ....####@@@@@@@@@@@@@@@@@@@@@@@@@@@@@@@@####@@@@        ",
"        ....####@@@@@@@@@@@@@@@@@@@@@@@@@@@@@@@@####@@@@        ",
"        ....####@@@@@@@@@@@@@@@@@@@@@@@@@@@@@@@@####@@@@        ",
"             ###@@@@@@@@@@@@@@@@@@@@@@@@@@@@@@@@####@@@@        ",
"             ###@@@@@@@@@@@@@@@@@@@@@@@@@@@@@@@@####@@@@        ",
"             ###@@@@@@@@@@@@@@@@@@@@@@@@@@@@@@@@####@@@@        ",
"             ###@@@@@@@@@@@@@@@@@@@@@@@@@@@@@@@@####@@@@        ",
"             .......................................            ",
"             .......................................            ",
"             .......................................            ",
"             .......................................            "};
