/* XPM */
static char * player_xpm[] = {
"64 64 17 1",
" 	c #211E27",
".	c #4385A7",
"+	c #4EA4C0",
"@	c #5C3C45",
"#	c #904B36",
"$	c #36638D",
"%	c #9B6141",
"&	c #7E3B32",
"*	c #384B74",
"=	c #593D2E",
"-	c #2C2A28",
";	c #4C332C",
">	c #665E5B",
",	c #353232",
"'	c #2D3250",
")	c #7F6F64",
"!	c #312E3D",
"                                                                ",
"                                                                ",
"                                                                ",
"                                                                ",
"                                                                ",
"                                                                ",
"                                                                ",
"                                                                ",
"                                                                ",
"                                                                ",
"                                                                ",
"                                                                ",
"                                                                ",
"                                                                ",
"                                                                ",
"                                                                ",
"                             ..+++.                             ",
"                           ....+++...                           ",
"                           ....+++...                           ",
"                     @@#@@.$$......$$..                         ",
"                     @@#@@.$$......$$..                         ",
"                     ##%##.$$$$$$$$$$..                         ",
"                     &&#&&$$$******$$$$                         ",
"                     &&#&&$$$******$$$$                         ",
"                     ==&==$**------**$$                         ",
"                     ;;=;;$-->>,,,>--$$                         ",
"                     ;;=;;$-->>,,,>--$$                         ",
"                       ;  $,,,,,,,,,,$$                         ",
"                       ;  $,,,,,,,,,,$$                         ",
"                       ;++$..--,,,-..$$*''                      ",
"                       ;..$$$......$$*****'                     ",
"                       ;..$$$......$$*****'                     ",
"                     $$=$$$**$$$$$$********''                   ",
"                   $$)))>>$$$**********'***$$''                 ",
"                   $$)))>>$$$**********'***$$''                 ",
"                   $$))>>>$$$$$*$$*****'''$**''                 ",
"                   $$))>>>$$$$$*$$*****'''$**''                 ",
"                   $$)))>>$$$$$*$$$*****''*''''                 ",
"                     $$;$$$$$$$'$$$*****'''''                   ",
"                     $$;$$$$$$$'$$$*****'''''                   ",
"                   !!$$;$$$$$**'$$******'''!!                   ",
"                   !!**=$$$****'*******''''!!                   ",
"                   !!**=$$$****'*******''''!!                   ",
"                     !!=*****'''''''''''''!                     ",
"                     !!=*****'''''''''''''!                     ",
"                       =!!!!!!!!!!!!!!!!                        ",
"                          !!!!!!!!!!!                           ",
"                          !!!!!!!!!!!                           ",
"                                                                ",
"                                                                ",
"                                                                ",
"                                                                ",
"                                                                ",
"                                                                ",
"                                                                ",
"                                                                ",
"                                                                ",
"                                                                ",
"                                                                ",
"                                                                ",
"                                                                ",
"                                                                ",
"                                                                ",
"                                                                "};
