/* XPM */
static char * wall_xpm[] = {
"64 64 6 1",
" 	c None",
".	c #4E5964",
"+	c #5C7678",
"@	c #312E3D",
"#	c #3E414E",
"$	c #28252F",
" .++++...@..+++++...@.++++++..@@.+++++...@..+++++...@.++++++..  ",
" .++++...@..+++++...@.++++++..@@.+++++...@..+++++...@.++++++..  ",
"..+++....@...+++....@...++....@@..+++....@...+++....@...++......",
".........@..........@.........@@.........@..........@.........++",
".........#........@@#.........@@........@#..........@........+++",
".........#........@@#.........@@........@#..........@........+++",
"......##################......@@#############.......@####....+++",
"@@##############################..########################....++",
".....###########################..@@######################......",
".....###########################..@@######################......",
".....#######################.@##############################....",
"......#######################################################@@@",
"+.....####################################################......",
"+.....####################################################......",
"++....####################################################....++",
"++....####################################################...+++",
"+.....###################################################....+++",
"+.....###################################################....+++",
".....####################################################.....++",
".....####################################################.......",
"@@########################################################......",
"@@########################################################......",
".....########################################################@@@",
"+....###########################################################",
"++...####################################################.......",
"++...####################################################.......",
"++....##################################################........",
"......##################################################......++",
"@@######################################################.....+++",
"@@######################################################.....+++",
".....###################################################.....+++",
"+.....##################################################......++",
"+.....###################################################.......",
"+.....###################################################.......",
"+.....###################################################.......",
"......########################################################@@",
"@@###########.....################......################.....@@@",
"@@###########.....################......################.....@@@",
"@.......##..........#........###.........#........###.........@@",
"@........#..........@.........##.........@..........#.........@@",
"@.++++...@...++++...@...++++..@@..++++...@...++++...@...++++..@@",
"@.++++...@...++++...@...++++..@@..++++...@...++++...@...++++..@@",
"@+++++++.@..++++++..@.+++++++.@@.+++++++.$..++++++..@.+++++++.@@",
"@........@..........$.........@@.........$..........@.........@@",
"@#......@.........@@$........@..........@$........@@.........@@@",
"@#......@.........@@$........@..........@$........@@.........@@@",
"@####...@....#####@@$...##...@....######@$...###..@@....#####@@@",
"@#######@#########@@$########@##########@$########@@#########@@@",
"#@######@#########@@$########@##########@$########@@#########@@@",
"#@######@#########@@$########@##########@$########@@#########@@@",
"#@######@#....######$########@##....#####$########@@#....####@@@",
"#@####@@@###########$#######@@###########$#######@@@##########@@",
"#@##################$@###################$@@##################@@",
"#@##################$@###################$@@##################@@",
"#@##########@#######@$@@#########@#######@$$@#########@@######@@",
"#@########@@########@$@@########@########@$$@########@########@@",
"@###########@#......#$$$@########@##.....#$$$@########@@#.....##",
"@###########@#......#$$$@########@##.....#$$$@########@@#.....##",
"@###########@#######@$@@#########@#######@$$@#########@@######@@",
"@###......##@#####@@@$$$#.......#@######@@$$$#.......#@@#####@@@",
".#$$@####@@@@###@@$$..##$@####@@@@###@@@$...#$@@####@@@@##@@@$$$",
".#$$@####@@@@###@@$$..##$@####@@@@###@@@$...#$@@####@@@@##@@@$$$",
"##$$@@@@@@@@@@@@@@######$@@@@@@@@@@@@@@@#####$@@@@@@@@@@@@@@@###",
"@@@@#################@@@@#################@@@@##################"};
